<svg xmlns="http://www.w3.org/2000/svg" xmlns:xlink="http://www.w3.org/1999/xlink" width="200" zoomAndPan="magnify" viewBox="0 0 150 30.000001" height="40" preserveAspectRatio="xMidYMid meet" version="1.0"><defs><g/><clipPath id="c2a434a2a9"><path d="M 2.417969 0 L 147.578125 0 L 147.578125 29.03125 L 2.417969 29.03125 Z M 2.417969 0 " clip-rule="nonzero"/></clipPath><clipPath id="5e41fdc33a"><path d="M 11 4.4375 L 30 4.4375 L 30 23 L 11 23 Z M 11 4.4375 " clip-rule="nonzero"/></clipPath><clipPath id="95604ff660"><path d="M 19 4.4375 L 37 4.4375 L 37 8 L 19 8 Z M 19 4.4375 " clip-rule="nonzero"/></clipPath><clipPath id="a340808b1d"><path d="M 10.617188 4.4375 L 34 4.4375 L 34 24.761719 L 10.617188 24.761719 Z M 10.617188 4.4375 " clip-rule="nonzero"/></clipPath><clipPath id="a7bbc12242"><path d="M 38 13 L 42.550781 13 L 42.550781 17 L 38 17 Z M 38 13 " clip-rule="nonzero"/></clipPath></defs><g clip-path="url(#c2a434a2a9)"><path fill="#ffffff" d="M 2.417969 0 L 147.582031 0 L 147.582031 29.03125 L 2.417969 29.03125 Z M 2.417969 0 " fill-opacity="1" fill-rule="nonzero"/><path fill="#ffffff" d="M 2.417969 0 L 147.582031 0 L 147.582031 29.03125 L 2.417969 29.03125 Z M 2.417969 0 " fill-opacity="1" fill-rule="nonzero"/></g><g clip-path="url(#5e41fdc33a)"><path fill="#ffffff" d="M 29.269531 13.8125 C 29.269531 18.757812 25.257812 22.769531 20.308594 22.769531 C 15.363281 22.769531 11.351562 18.757812 11.351562 13.8125 C 11.351562 8.863281 15.363281 4.851562 20.308594 4.851562 C 25.257812 4.851562 29.269531 8.863281 29.269531 13.8125 " fill-opacity="1" fill-rule="nonzero"/></g><g clip-path="url(#95604ff660)"><path fill="#ff7062" d="M 26.859375 7.558594 L 35.277344 7.558594 C 36.140625 7.558594 36.839844 6.863281 36.839844 6 C 36.839844 5.140625 36.140625 4.441406 35.277344 4.441406 L 19.957031 4.5 C 22.691406 4.5 25.152344 5.679688 26.859375 7.558594 " fill-opacity="1" fill-rule="nonzero"/></g><path fill="#ff7062" d="M 36.457031 10.683594 L 33.578125 10.683594 C 33.535156 10.683594 33.488281 10.683594 33.445312 10.679688 L 28.738281 10.679688 C 29.089844 11.660156 29.285156 12.710938 29.285156 13.8125 L 36.320312 13.8125 C 37.183594 13.8125 37.878906 13.113281 37.878906 12.25 L 37.878906 12.238281 C 37.878906 11.421875 37.253906 10.753906 36.457031 10.683594 " fill-opacity="1" fill-rule="nonzero"/><path fill="#ff7062" d="M 28.753906 16.933594 C 28.460938 17.761719 28.054688 18.539062 27.554688 19.238281 L 28.871094 20.007812 L 28.777344 20.0625 L 32.386719 20.0625 C 33.246094 20.0625 33.945312 19.363281 33.945312 18.503906 L 33.945312 18.492188 C 33.945312 17.667969 33.304688 16.992188 32.492188 16.9375 C 32.457031 16.9375 32.421875 16.933594 32.386719 16.933594 L 28.753906 16.933594 " fill-opacity="1" fill-rule="nonzero"/><g clip-path="url(#a340808b1d)"><path fill="#ff7062" d="M 26.578125 19.175781 L 25.960938 18.8125 C 26.105469 18.636719 26.246094 18.453125 26.378906 18.265625 L 26.441406 18.273438 C 26.085938 18.777344 25.46875 19.234375 25.003906 19.640625 L 22.894531 18.410156 L 23.339844 20.0625 L 23.539062 20.714844 C 22.796875 21.101562 21.65625 21.597656 20.796875 21.722656 C 20.746094 21.769531 20.984375 21.535156 20.933594 21.578125 C 21.445312 21.511719 21.941406 21.398438 22.417969 21.238281 L 22.601562 21.921875 C 22.238281 22.042969 21.863281 22.136719 21.480469 22.207031 C 21.019531 22.292969 20.546875 22.335938 20.0625 22.34375 C 20.027344 22.34375 19.992188 22.34375 19.957031 22.34375 C 19.921875 22.34375 19.886719 22.34375 19.851562 22.34375 C 19.367188 22.335938 18.890625 22.292969 18.429688 22.207031 C 14.460938 21.488281 11.441406 18.003906 11.441406 13.828125 C 11.441406 9.65625 14.460938 6.171875 18.429688 5.453125 C 18.890625 5.367188 19.367188 5.320312 19.851562 5.316406 C 19.886719 5.316406 19.921875 5.3125 19.957031 5.3125 C 19.992188 5.3125 20.027344 5.316406 20.0625 5.316406 C 20.546875 5.320312 21.019531 5.367188 21.480469 5.453125 C 25.449219 6.171875 28.472656 9.65625 28.472656 13.828125 C 28.472656 15.851562 27.761719 17.710938 26.578125 19.175781 Z M 33.578125 7.558594 L 26.859375 7.558594 C 25.152344 5.679688 22.691406 4.5 19.957031 4.5 C 14.808594 4.5 10.625 8.683594 10.625 13.828125 C 10.625 18.976562 14.808594 23.160156 19.957031 23.160156 L 19.957031 23.1875 L 22.492188 23.1875 L 22.871094 24.597656 L 24.242188 23.1875 L 24.714844 23.1875 L 25.589844 24.332031 L 27.085938 23.1875 L 27.902344 22.5625 L 26.820312 21.144531 L 28.777344 20.0625 L 28.871094 20.007812 L 27.554688 19.238281 C 28.054688 18.539062 28.460938 17.761719 28.753906 16.933594 L 32.386719 16.933594 C 32.421875 16.933594 32.457031 16.9375 32.492188 16.9375 L 32.492188 16.933594 C 31.652344 16.910156 30.976562 16.222656 30.976562 15.375 C 30.976562 14.511719 31.675781 13.8125 32.539062 13.8125 L 29.285156 13.8125 C 29.285156 12.710938 29.089844 11.660156 28.738281 10.679688 L 33.445312 10.679688 C 32.644531 10.613281 32.019531 9.941406 32.019531 9.125 L 32.019531 9.121094 C 32.019531 8.257812 32.71875 7.558594 33.578125 7.558594 " fill-opacity="1" fill-rule="nonzero"/></g><path fill="#ff7062" d="M 36.375 20.175781 L 35.453125 20.175781 C 34.621094 20.175781 33.949219 20.851562 33.949219 21.683594 C 33.949219 22.511719 34.621094 23.1875 35.453125 23.1875 L 36.375 23.1875 C 37.207031 23.1875 37.878906 22.511719 37.878906 21.683594 C 37.878906 20.851562 37.207031 20.175781 36.375 20.175781 " fill-opacity="1" fill-rule="nonzero"/><g clip-path="url(#a7bbc12242)"><path fill="#ff7062" d="M 41.34375 13.894531 L 40.421875 13.894531 C 39.589844 13.894531 38.914062 14.570312 38.914062 15.402344 C 38.914062 16.234375 39.589844 16.90625 40.421875 16.90625 L 41.34375 16.90625 C 42.171875 16.90625 42.847656 16.234375 42.847656 15.402344 C 42.847656 14.570312 42.171875 13.894531 41.34375 13.894531 " fill-opacity="1" fill-rule="nonzero"/></g><path fill="#ff7062" d="M 40.308594 10.625 C 41.140625 10.625 41.8125 9.953125 41.8125 9.121094 C 41.8125 8.289062 41.140625 7.613281 40.308594 7.613281 L 39.386719 7.613281 C 38.554688 7.613281 37.878906 8.289062 37.878906 9.121094 C 37.878906 9.953125 38.554688 10.625 39.386719 10.625 L 40.308594 10.625 " fill-opacity="1" fill-rule="nonzero"/><path fill="#1d1d1b" d="M 23.808594 17.558594 L 25.019531 18.265625 L 26.246094 18.265625 C 26.40625 18.035156 26.554688 17.800781 26.691406 17.558594 L 23.808594 17.558594 " fill-opacity="1" fill-rule="nonzero"/><path fill="#1d1d1b" d="M 19.601562 9.394531 L 17.296875 9.394531 C 17.871094 8.261719 18.660156 7.289062 19.601562 6.542969 Z M 19.601562 13.476562 L 16.257812 13.476562 C 16.300781 12.273438 16.550781 11.136719 16.972656 10.101562 L 19.601562 10.101562 Z M 19.601562 17.558594 L 16.972656 17.558594 C 16.550781 16.523438 16.300781 15.382812 16.257812 14.183594 L 19.601562 14.183594 Z M 19.601562 21.117188 C 18.660156 20.371094 17.871094 19.394531 17.296875 18.265625 L 19.601562 18.265625 Z M 20.308594 10.101562 L 22.9375 10.101562 C 23.359375 11.136719 23.613281 12.273438 23.652344 13.476562 L 20.308594 13.476562 Z M 20.308594 6.542969 C 21.25 7.289062 22.039062 8.261719 22.613281 9.394531 L 20.308594 9.394531 Z M 22.171875 20.320312 L 21.925781 19.402344 C 21.460938 20.058594 20.917969 20.632812 20.308594 21.117188 L 20.308594 18.265625 L 21.617188 18.265625 L 21.425781 17.558594 L 20.308594 17.558594 L 20.308594 14.183594 L 23.652344 14.183594 C 23.617188 15.226562 23.421875 16.222656 23.097656 17.140625 L 23.757812 17.527344 C 24.140625 16.492188 24.367188 15.363281 24.40625 14.183594 L 27.644531 14.183594 C 27.652344 14.066406 27.65625 13.949219 27.65625 13.828125 C 27.65625 13.824219 27.65625 13.816406 27.65625 13.8125 C 27.65625 13.699219 27.652344 13.585938 27.644531 13.476562 L 24.40625 13.476562 C 24.367188 12.285156 24.136719 11.144531 23.746094 10.101562 L 26.691406 10.101562 C 26.554688 9.859375 26.40625 9.621094 26.246094 9.394531 L 23.449219 9.394531 C 22.875 8.152344 22.0625 7.066406 21.085938 6.214844 C 20.71875 6.160156 20.339844 6.128906 19.957031 6.128906 C 19.570312 6.128906 19.195312 6.160156 18.824219 6.214844 C 17.847656 7.066406 17.035156 8.152344 16.460938 9.394531 L 13.664062 9.394531 C 13.503906 9.621094 13.355469 9.859375 13.21875 10.101562 L 16.164062 10.101562 C 15.773438 11.144531 15.542969 12.285156 15.503906 13.476562 L 12.265625 13.476562 C 12.257812 13.59375 12.257812 13.710938 12.257812 13.828125 C 12.257812 13.949219 12.257812 14.066406 12.265625 14.183594 L 15.503906 14.183594 C 15.542969 15.375 15.773438 16.511719 16.164062 17.558594 L 13.21875 17.558594 C 13.355469 17.800781 13.503906 18.035156 13.664062 18.265625 L 16.460938 18.265625 C 17.035156 19.507812 17.847656 20.59375 18.824219 21.445312 C 19.195312 21.5 19.570312 21.527344 19.957031 21.527344 C 20.339844 21.527344 20.71875 21.5 21.085938 21.445312 C 21.476562 21.105469 21.839844 20.730469 22.171875 20.320312 " fill-opacity="1" fill-rule="nonzero"/><path fill="#1d1d1b" d="M 21.480469 5.453125 C 21.019531 5.367188 20.546875 5.320312 20.0625 5.316406 C 20.027344 5.316406 19.992188 5.3125 19.957031 5.3125 C 19.921875 5.3125 19.886719 5.316406 19.851562 5.316406 C 19.367188 5.320312 18.890625 5.367188 18.429688 5.453125 C 14.460938 6.171875 11.441406 9.65625 11.441406 13.828125 C 11.441406 18.003906 14.460938 21.488281 18.429688 22.207031 C 18.890625 22.292969 19.367188 22.335938 19.851562 22.34375 C 19.886719 22.34375 19.921875 22.34375 19.957031 22.34375 C 19.992188 22.34375 20.027344 22.34375 20.0625 22.34375 C 20.546875 22.335938 21.019531 22.292969 21.480469 22.207031 C 21.863281 22.136719 22.238281 22.042969 22.601562 21.921875 L 22.417969 21.238281 C 21.941406 21.398438 21.445312 21.511719 20.933594 21.578125 C 20.984375 21.535156 21.035156 21.488281 21.085938 21.445312 C 20.71875 21.5 20.339844 21.527344 19.957031 21.527344 C 19.570312 21.527344 19.195312 21.5 18.824219 21.445312 C 18.875 21.488281 18.925781 21.535156 18.976562 21.578125 C 16.726562 21.292969 14.769531 20.046875 13.53125 18.265625 L 13.664062 18.265625 C 13.503906 18.035156 13.355469 17.800781 13.21875 17.558594 L 13.097656 17.558594 C 12.542969 16.546875 12.210938 15.398438 12.15625 14.183594 L 12.265625 14.183594 C 12.257812 14.066406 12.257812 13.949219 12.257812 13.828125 C 12.257812 13.710938 12.257812 13.59375 12.265625 13.476562 L 12.15625 13.476562 C 12.210938 12.257812 12.542969 11.113281 13.097656 10.101562 L 13.21875 10.101562 C 13.355469 9.859375 13.503906 9.621094 13.664062 9.394531 L 13.53125 9.394531 C 14.769531 7.613281 16.726562 6.367188 18.976562 6.082031 C 18.925781 6.125 18.875 6.167969 18.824219 6.214844 C 19.195312 6.160156 19.570312 6.128906 19.957031 6.128906 C 20.339844 6.128906 20.71875 6.160156 21.085938 6.214844 C 21.035156 6.167969 20.984375 6.125 20.933594 6.082031 C 23.1875 6.367188 25.144531 7.613281 26.378906 9.394531 L 26.246094 9.394531 C 26.40625 9.621094 26.554688 9.859375 26.691406 10.101562 L 26.816406 10.101562 C 27.367188 11.113281 27.699219 12.257812 27.753906 13.476562 L 27.644531 13.476562 C 27.652344 13.585938 27.65625 13.699219 27.65625 13.8125 C 27.65625 13.816406 27.65625 13.824219 27.65625 13.828125 C 27.65625 13.949219 27.652344 14.066406 27.644531 14.183594 L 27.753906 14.183594 C 27.699219 15.398438 27.367188 16.546875 26.816406 17.558594 L 26.691406 17.558594 C 26.554688 17.800781 26.40625 18.035156 26.246094 18.265625 L 26.378906 18.265625 C 26.246094 18.453125 26.105469 18.636719 25.960938 18.8125 L 26.578125 19.175781 C 27.761719 17.710938 28.472656 15.851562 28.472656 13.828125 C 28.472656 9.65625 25.449219 6.171875 21.480469 5.453125 " fill-opacity="1" fill-rule="nonzero"/><path fill="#1d1d1b" d="M 27.222656 19.992188 L 21.589844 16.703125 L 23.285156 23 L 24.578125 21.667969 L 25.742188 23.1875 L 26.761719 22.410156 L 25.597656 20.890625 L 27.222656 19.992188 " fill-opacity="1" fill-rule="nonzero"/><g fill="#ff7062" fill-opacity="1"><g transform="translate(46.721528, 20.51366)"><g><path d="M 9 -11.21875 L 9 -9.359375 L 5.75 -9.359375 L 5.75 0 L 3.546875 0 L 3.546875 -9.359375 L 0.3125 -9.359375 L 0.3125 -11.21875 Z M 9 -11.21875 "/></g></g></g><g fill="#ff7062" fill-opacity="1"><g transform="translate(56.027398, 20.51366)"><g><path d="M 3.875 0.15625 C 2.925781 0.15625 2.222656 -0.0976562 1.765625 -0.609375 C 1.316406 -1.128906 1.09375 -1.878906 1.09375 -2.859375 L 1.09375 -8.46875 L 3.21875 -8.46875 L 3.21875 -3.125 C 3.21875 -2.601562 3.328125 -2.222656 3.546875 -1.984375 C 3.773438 -1.753906 4.117188 -1.640625 4.578125 -1.640625 C 5.171875 -1.640625 5.628906 -1.832031 5.953125 -2.21875 C 6.285156 -2.601562 6.453125 -3.207031 6.453125 -4.03125 L 6.453125 -8.46875 L 8.578125 -8.46875 L 8.578125 0 L 6.53125 0 L 6.53125 -1.25 L 6.375 -1.28125 C 6.101562 -0.789062 5.769531 -0.425781 5.375 -0.1875 C 4.988281 0.0390625 4.488281 0.15625 3.875 0.15625 Z M 3.875 0.15625 "/></g></g></g><g fill="#ff7062" fill-opacity="1"><g transform="translate(65.824666, 20.51366)"><g><path d="M 1.21875 0 L 1.21875 -8.46875 L 3.265625 -8.46875 L 3.265625 -7.328125 L 3.421875 -7.296875 C 3.703125 -7.753906 4.023438 -8.085938 4.390625 -8.296875 C 4.765625 -8.515625 5.238281 -8.625 5.8125 -8.625 C 6.457031 -8.625 6.972656 -8.492188 7.359375 -8.234375 C 7.742188 -7.984375 8.03125 -7.617188 8.21875 -7.140625 L 8.375 -7.140625 C 8.632812 -7.640625 8.96875 -8.007812 9.375 -8.25 C 9.789062 -8.5 10.304688 -8.625 10.921875 -8.625 C 12.671875 -8.625 13.546875 -7.644531 13.546875 -5.6875 L 13.546875 0 L 11.421875 0 L 11.421875 -5.421875 C 11.421875 -5.921875 11.320312 -6.28125 11.125 -6.5 C 10.9375 -6.71875 10.628906 -6.828125 10.203125 -6.828125 C 9.035156 -6.828125 8.453125 -6.046875 8.453125 -4.484375 L 8.453125 0 L 6.328125 0 L 6.328125 -5.421875 C 6.328125 -5.921875 6.226562 -6.28125 6.03125 -6.5 C 5.832031 -6.71875 5.519531 -6.828125 5.09375 -6.828125 C 4.539062 -6.828125 4.109375 -6.644531 3.796875 -6.28125 C 3.492188 -5.914062 3.34375 -5.332031 3.34375 -4.53125 L 3.34375 0 Z M 1.21875 0 "/></g></g></g><g fill="#ff7062" fill-opacity="1"><g transform="translate(80.474501, 20.51366)"><g><path d="M 1.21875 3.4375 L 1.21875 -8.46875 L 3.34375 -8.46875 L 3.34375 -7.359375 L 3.5 -7.328125 C 3.757812 -7.753906 4.097656 -8.078125 4.515625 -8.296875 C 4.929688 -8.515625 5.421875 -8.625 5.984375 -8.625 C 6.660156 -8.625 7.253906 -8.460938 7.765625 -8.140625 C 8.273438 -7.816406 8.671875 -7.328125 8.953125 -6.671875 C 9.242188 -6.015625 9.390625 -5.203125 9.390625 -4.234375 C 9.390625 -3.265625 9.238281 -2.453125 8.9375 -1.796875 C 8.632812 -1.140625 8.21875 -0.648438 7.6875 -0.328125 C 7.15625 -0.00390625 6.539062 0.15625 5.84375 0.15625 C 5.320312 0.15625 4.867188 0.0664062 4.484375 -0.109375 C 4.097656 -0.285156 3.769531 -0.554688 3.5 -0.921875 L 3.34375 -0.890625 L 3.34375 3.4375 Z M 5.25 -1.640625 C 5.882812 -1.640625 6.363281 -1.847656 6.6875 -2.265625 C 7.019531 -2.679688 7.1875 -3.335938 7.1875 -4.234375 C 7.1875 -5.128906 7.019531 -5.785156 6.6875 -6.203125 C 6.363281 -6.617188 5.882812 -6.828125 5.25 -6.828125 C 4.65625 -6.828125 4.1875 -6.609375 3.84375 -6.171875 C 3.5 -5.742188 3.328125 -5.097656 3.328125 -4.234375 C 3.328125 -3.367188 3.5 -2.71875 3.84375 -2.28125 C 4.1875 -1.851562 4.65625 -1.640625 5.25 -1.640625 Z M 5.25 -1.640625 "/></g></g></g><g fill="#ff7062" fill-opacity="1"><g transform="translate(90.617293, 20.51366)"><g><path d="M 8.359375 -3.75 L 2.921875 -3.75 C 2.984375 -3.007812 3.191406 -2.472656 3.546875 -2.140625 C 3.910156 -1.804688 4.398438 -1.640625 5.015625 -1.640625 C 5.503906 -1.640625 5.898438 -1.726562 6.203125 -1.90625 C 6.503906 -2.09375 6.75 -2.367188 6.9375 -2.734375 L 7.09375 -2.734375 L 8.5 -1.828125 C 8.226562 -1.234375 7.8125 -0.753906 7.25 -0.390625 C 6.695312 -0.0234375 5.953125 0.15625 5.015625 0.15625 C 4.140625 0.15625 3.382812 -0.0078125 2.75 -0.34375 C 2.113281 -0.675781 1.625 -1.171875 1.28125 -1.828125 C 0.9375 -2.484375 0.765625 -3.285156 0.765625 -4.234375 C 0.765625 -5.191406 0.941406 -6 1.296875 -6.65625 C 1.660156 -7.320312 2.148438 -7.816406 2.765625 -8.140625 C 3.390625 -8.460938 4.085938 -8.625 4.859375 -8.625 C 6.054688 -8.625 6.972656 -8.304688 7.609375 -7.671875 C 8.253906 -7.035156 8.578125 -6.101562 8.578125 -4.875 C 8.578125 -4.4375 8.5625 -4.09375 8.53125 -3.84375 Z M 6.546875 -5.125 C 6.523438 -5.769531 6.375 -6.238281 6.09375 -6.53125 C 5.8125 -6.832031 5.398438 -6.984375 4.859375 -6.984375 C 3.785156 -6.984375 3.15625 -6.363281 2.96875 -5.125 Z M 6.546875 -5.125 "/></g></g></g><g fill="#ff7062" fill-opacity="1"><g transform="translate(99.823357, 20.51366)"><g><path d="M 9 -11.21875 L 9 -9.359375 L 5.75 -9.359375 L 5.75 0 L 3.546875 0 L 3.546875 -9.359375 L 0.3125 -9.359375 L 0.3125 -11.21875 Z M 9 -11.21875 "/></g></g></g><g fill="#ff7062" fill-opacity="1"><g transform="translate(109.129227, 20.51366)"><g><path d="M 8.359375 -3.75 L 2.921875 -3.75 C 2.984375 -3.007812 3.191406 -2.472656 3.546875 -2.140625 C 3.910156 -1.804688 4.398438 -1.640625 5.015625 -1.640625 C 5.503906 -1.640625 5.898438 -1.726562 6.203125 -1.90625 C 6.503906 -2.09375 6.75 -2.367188 6.9375 -2.734375 L 7.09375 -2.734375 L 8.5 -1.828125 C 8.226562 -1.234375 7.8125 -0.753906 7.25 -0.390625 C 6.695312 -0.0234375 5.953125 0.15625 5.015625 0.15625 C 4.140625 0.15625 3.382812 -0.0078125 2.75 -0.34375 C 2.113281 -0.675781 1.625 -1.171875 1.28125 -1.828125 C 0.9375 -2.484375 0.765625 -3.285156 0.765625 -4.234375 C 0.765625 -5.191406 0.941406 -6 1.296875 -6.65625 C 1.660156 -7.320312 2.148438 -7.816406 2.765625 -8.140625 C 3.390625 -8.460938 4.085938 -8.625 4.859375 -8.625 C 6.054688 -8.625 6.972656 -8.304688 7.609375 -7.671875 C 8.253906 -7.035156 8.578125 -6.101562 8.578125 -4.875 C 8.578125 -4.4375 8.5625 -4.09375 8.53125 -3.84375 Z M 6.546875 -5.125 C 6.523438 -5.769531 6.375 -6.238281 6.09375 -6.53125 C 5.8125 -6.832031 5.398438 -6.984375 4.859375 -6.984375 C 3.785156 -6.984375 3.15625 -6.363281 2.96875 -5.125 Z M 6.546875 -5.125 "/></g></g></g><g fill="#ff7062" fill-opacity="1"><g transform="translate(118.33529, 20.51366)"><g><path d="M 4.9375 0.15625 C 4.113281 0.15625 3.382812 -0.0078125 2.75 -0.34375 C 2.125 -0.6875 1.632812 -1.1875 1.28125 -1.84375 C 0.9375 -2.507812 0.765625 -3.304688 0.765625 -4.234375 C 0.765625 -5.160156 0.9375 -5.953125 1.28125 -6.609375 C 1.632812 -7.273438 2.125 -7.773438 2.75 -8.109375 C 3.375 -8.453125 4.085938 -8.625 4.890625 -8.625 C 6.679688 -8.625 7.828125 -7.976562 8.328125 -6.6875 L 6.875 -5.640625 L 6.703125 -5.640625 C 6.535156 -6.035156 6.3125 -6.332031 6.03125 -6.53125 C 5.75 -6.726562 5.367188 -6.828125 4.890625 -6.828125 C 4.273438 -6.828125 3.796875 -6.613281 3.453125 -6.1875 C 3.117188 -5.757812 2.953125 -5.109375 2.953125 -4.234375 C 2.953125 -3.359375 3.125 -2.707031 3.46875 -2.28125 C 3.8125 -1.851562 4.300781 -1.640625 4.9375 -1.640625 C 5.394531 -1.640625 5.78125 -1.765625 6.09375 -2.015625 C 6.414062 -2.265625 6.648438 -2.617188 6.796875 -3.078125 L 6.953125 -3.09375 L 8.46875 -2.265625 C 8.25 -1.554688 7.847656 -0.972656 7.265625 -0.515625 C 6.691406 -0.0664062 5.914062 0.15625 4.9375 0.15625 Z M 4.9375 0.15625 "/></g></g></g><g fill="#ff7062" fill-opacity="1"><g transform="translate(127.06531, 20.51366)"><g><path d="M 1.21875 0 L 1.21875 -11.859375 L 3.34375 -11.859375 L 3.34375 -7.359375 L 3.5 -7.328125 C 3.789062 -7.742188 4.140625 -8.0625 4.546875 -8.28125 C 4.953125 -8.507812 5.445312 -8.625 6.03125 -8.625 C 7.894531 -8.625 8.828125 -7.566406 8.828125 -5.453125 L 8.828125 0 L 6.703125 0 L 6.703125 -5.1875 C 6.703125 -5.757812 6.585938 -6.175781 6.359375 -6.4375 C 6.128906 -6.695312 5.769531 -6.828125 5.28125 -6.828125 C 4.6875 -6.828125 4.210938 -6.628906 3.859375 -6.234375 C 3.515625 -5.835938 3.34375 -5.21875 3.34375 -4.375 L 3.34375 0 Z M 1.21875 0 "/></g></g></g></svg>